<?xml version="1.0" encoding="utf-8"?>
<!-- Generator: Adobe Illustrator 27.5.0, SVG Export Plug-In . SVG Version: 6.00 Build 0)  -->
<svg version="1.1" xmlns="http://www.w3.org/2000/svg" xmlns:xlink="http://www.w3.org/1999/xlink" x="0px" y="0px"
	 viewBox="0 0 3710 3710" style="enable-background:new 0 0 3710 3710;" xml:space="preserve">
<g id="Illustration">
	<g>
		<linearGradient id="SVGID_1_" gradientUnits="userSpaceOnUse" x1="3614.1226" y1="4069.5383" x2="1130.8053" y2="985.4141">
			<stop  offset="0" style="stop-color:#DAE3FE"/>
			<stop  offset="1" style="stop-color:#E9EFFD"/>
		</linearGradient>
		<path style="fill:url(#SVGID_1_);" d="M2930.946,2853.271c-57.041,60.05-111.012,98.776-153.654,129.372
			c-501.246,359.65-1094.353,254.813-1220.406,229.211c-186.139-37.806-545.942-110.884-806.074-416.793
			c-393.557-462.815-332.274-1191.967-27.005-1673.29c55.839-88.042,350.794-576.697,950.289-655.062
			c362.808-47.425,785.726,48.226,1091.991,304.816C3408.967,1310.13,3363.201,2398.207,2930.946,2853.271z"/>
		<g>
			<path style="fill:#BDD0FB;" d="M731.773,1042.644c-49.632,127.296-310.207,881.022,306.159,1276.898
				c0,0,290.794-447.655-287.4-1279.287C745.475,1032.98,735.015,1034.328,731.773,1042.644z"/>
			<path style="opacity:0.57;fill:#FFFFFF;" d="M767.143,1177.94c0.462,44.146,1.775,88.348,3.441,132.502
				c1.686,44.162,3.846,88.307,6.486,132.421c5.277,88.225,12.386,176.341,22.012,264.147
				c9.686,87.784,21.749,175.322,38.216,261.907c8.104,43.316,17.664,86.31,28.722,128.814
				c11.112,42.477,23.789,84.514,39.466,125.193l0.009,0.024c1.174,3.046-0.164,6.517-2.989,7.752
				c-2.825,1.235-6.066-0.232-7.24-3.279l-0.014-0.035c-15.662-41.394-28.194-83.916-39.136-126.788
				c-10.884-42.9-20.233-86.194-28.113-129.753c-16.017-87.074-27.578-174.914-36.755-262.941
				c-9.116-88.045-15.704-176.328-20.456-264.689c-2.377-44.181-4.273-88.384-5.695-132.6c-1.403-44.222-2.45-88.43-2.647-132.701
				c-0.006-1.392,1.039-2.517,2.335-2.511c1.291,0.005,2.343,1.129,2.358,2.514L767.143,1177.94z"/>
		</g>
		<g>
			<path style="fill:#91B3FA;" d="M1023.096,2560.151c20.747,11.626,46.743-0.794,50.763-24.234
				c10.02-58.422,10.881-169.252-76.96-302.086c-121.294-183.422-460.298-626.651-507.048-839.757
				c-2.07-9.44-15.46-9.466-17.462-0.011c-21.48,101.423-55.313,359.67,69.366,648.241
				C670.318,2339.869,925.853,2505.658,1023.096,2560.151z"/>
			<path style="opacity:0.45;fill:#FFFFFF;" d="M526.932,1610.892c-0.467,11.426,0.332,22.86,1.029,34.25l1.589,17.058
				c0.576,5.678,1.47,11.326,2.188,16.987c0.393,2.826,0.73,5.66,1.168,8.478l1.486,8.433l2.975,16.854l3.679,16.717
				c1.305,5.552,2.262,11.178,3.812,16.673c10.907,44.286,25.406,87.693,43.633,129.478c18.05,41.826,38.264,82.785,61.821,121.815
				l8.642,14.745l4.343,7.359l4.681,7.152l18.72,28.608c3.153,4.75,6.164,9.574,9.432,14.264l9.785,14.082l19.57,28.162
				c26.432,37.313,53.164,74.415,80.481,111.101c27.275,36.716,54.96,73.135,82.636,109.602
				c27.623,36.502,55.601,72.791,81.912,110.383c6.679,9.318,12.905,18.977,19.284,28.512c3.244,4.73,6.176,9.679,9.213,14.552
				c2.987,4.906,6.105,9.726,8.983,14.698c11.548,19.872,21.866,40.51,29.891,62.081c0.251,0.676-0.093,1.426-0.767,1.677
				c-0.65,0.242-1.37-0.068-1.646-0.693l-0.029-0.066l-6.887-15.639l-1.719-3.905c-0.581-1.298-1.301-2.534-1.945-3.804
				l-3.969-7.568c-5.029-10.219-11.137-19.875-16.868-29.714c-2.971-4.862-6.187-9.583-9.267-14.38
				c-3.131-4.765-6.148-9.599-9.493-14.232c-6.573-9.336-12.978-18.771-19.857-27.9c-26.99-36.856-55.226-72.865-83.412-108.934
				l-42.232-54.17c-13.891-18.21-27.878-36.347-41.574-54.714c-13.812-18.276-27.424-36.707-40.921-55.223
				c-6.813-9.211-13.402-18.585-20.08-27.894l-19.948-27.99l-19.632-28.214l-9.816-14.106c-3.279-4.698-6.287-9.616-9.443-14.412
				l-18.723-28.953l-4.679-7.238l-4.344-7.447l-8.64-14.922l-8.639-14.921c-2.844-4.993-5.883-9.879-8.386-15.06l-15.695-30.71
				c-5.461-10.12-9.818-20.786-14.641-31.217c-4.656-10.509-9.711-20.843-13.644-31.661c-17.474-42.528-31.152-86.598-41.175-131.42
				c-1.443-5.559-2.305-11.252-3.399-16.886l-3.131-16.935l-2.421-17.053l-1.205-8.52c-0.345-2.848-0.589-5.71-0.887-8.563
				c-2.52-22.793-3.771-45.803-2.162-68.686c0.007-0.089,0.083-0.156,0.172-0.15
				C526.869,1610.722,526.935,1610.805,526.932,1610.892z"/>
		</g>
		
			<linearGradient id="SVGID_00000041991570550431942260000015797969917350706091_" gradientUnits="userSpaceOnUse" x1="1539.636" y1="3236.1909" x2="2448.6157" y2="1438.5802">
			<stop  offset="0" style="stop-color:#4F52FF"/>
			<stop  offset="1" style="stop-color:#4042E2"/>
		</linearGradient>
		<path style="fill:url(#SVGID_00000041991570550431942260000015797969917350706091_);" d="M467.059,2486.792
			c51.381,306.528,405.391,567.807,672.576,678.944c208.083,86.553,442.885,113.537,662.232,61.8
			c140.173-33.062,271.009-96.736,407.574-142.468c122.829-41.132,248.96-63.642,377.925-43.062
			c123.628,19.728,244.371,45.969,370.627,27.872c121.383-17.399,242.852-88.96,283.926-204.5
			c28.792-80.99,14.88-170.262-1.333-254.674c-16.163-84.153-36.044-171.637-91.183-237.239
			c-126.604-150.623-355.459-128.209-529.281-164.103c-222.377-45.92-445.536-60.975-670.748-90.456
			c-268.145-35.101-541.063-86.498-811.657-71.992c-189.241,10.145-425.893,32.405-572.876,167.313
			C475.955,2295.811,450.831,2389.976,467.059,2486.792z"/>
		<path style="fill:#7D97F4;" d="M519.163,2259.234l195.435-467.572c19.577-46.839,43.537-58.621,63.951-31.452l84.101,111.925
			c21.61,28.759,33.977,2.432,77.741-45.704l290.919-314.555c10.293-10.951,28.346-8.304,35.062,5.141
			c0,0,209.493,292.834,280.518,422.432c9.031,16.478,32.551,16.847,42.124,0.677l125.52-212.023
			c19.576-46.837,43.537-58.622,63.95-31.455l96.397,128.289c21.609,28.758,30.705,21.486,67.125-39.464l231.899-338.632
			c18.755-27.387,58.806-28.419,78.945-2.033l276.249,361.924c4.155,8.101,95.329-55.208,140.933-89.628
			c14.105-10.646,34.256-7.231,44.118,7.433l238.915,355.229l36.592,168.229c6.882,7.083,1.878,19.067-7.929,18.986l-444.407-3.677
			l-893.066,3.897L519.163,2259.234z"/>
		
			<linearGradient id="SVGID_00000175305540216394744370000018028657002338487451_" gradientUnits="userSpaceOnUse" x1="1710.928" y1="385.7022" x2="1746.54" y2="1158.981">
			<stop  offset="0" style="stop-color:#09005D"/>
			<stop  offset="1" style="stop-color:#1A0F91"/>
		</linearGradient>
		<path style="fill:url(#SVGID_00000175305540216394744370000018028657002338487451_);" d="M581.436,2244.473l163.15-120.78
			c22.581-16.717,51.986-21.137,78.484-11.799l109.166,38.471c28.05,9.885,59.23,4.321,82.129-14.656l194.939-161.551
			c26.03-21.572,62.4-25.582,92.505-10.201l460.271,235.165c28.611,14.619,63.034,11.774,88.858-7.343l137.449-101.752
			c22.58-16.716,51.984-21.136,78.481-11.799l125.125,44.096c28.05,9.885,59.229,4.321,82.128-14.656l217.225-180.019
			c26.029-21.572,62.4-25.582,92.505-10.201c0,0,265.507,223.002,439.852,346.877L596.64,2289.762
			C572.297,2290.017,561.871,2258.958,581.436,2244.473z"/>
		<g>
			
				<linearGradient id="SVGID_00000008150820966052154420000001719234235482368158_" gradientUnits="userSpaceOnUse" x1="1292.7372" y1="1288.3866" x2="2696.9109" y2="230.1698">
				<stop  offset="0" style="stop-color:#FF928E"/>
				<stop  offset="1" style="stop-color:#FE7062"/>
			</linearGradient>
			
				<circle style="fill:url(#SVGID_00000008150820966052154420000001719234235482368158_);" cx="1566.097" cy="1082.376" r="285.027"/>
			<g>
				
					<linearGradient id="SVGID_00000017488370896116461660000018245501346252371127_" gradientUnits="userSpaceOnUse" x1="953.472" y1="73.5566" x2="1675.8732" y2="1269.0792">
					<stop  offset="0" style="stop-color:#FF928E"/>
					<stop  offset="1" style="stop-color:#FE7062"/>
				</linearGradient>
				
					<circle style="fill:url(#SVGID_00000017488370896116461660000018245501346252371127_);" cx="1562.419" cy="1081.32" r="260.075"/>
			</g>
			<g>
				<path style="fill:#FFFFFF;" d="M1564.17,1390.869c-1.454,0-2.911-0.012-4.365-0.033c-2.812-0.043-5.054-2.355-5.011-5.166
					c0.047-2.809,2.289-4.932,5.164-5.01c1.494,0.023,2.998,0.03,4.488,0.033c6.273,0,12.61-0.195,18.84-0.58
					c2.895-0.181,5.22,1.963,5.392,4.765c0.172,2.804-1.961,5.218-4.763,5.391c-6.442,0.397-12.987,0.599-19.463,0.599
					C1564.359,1390.869,1564.266,1390.869,1564.17,1390.869z M1536.191,1389.578c-0.156,0-0.315-0.007-0.47-0.021
					c-7.973-0.73-16.021-1.787-23.918-3.137c-2.769-0.474-4.63-3.102-4.157-5.873c0.474-2.769,3.104-4.626,5.873-4.157
					c7.638,1.307,15.418,2.327,23.129,3.034c2.799,0.257,4.859,2.733,4.604,5.53
					C1541.007,1387.595,1538.792,1389.578,1536.191,1389.578z M1607.199,1387.897c-2.497,0-4.673-1.838-5.031-4.38
					c-0.391-2.782,1.547-5.354,4.332-5.745c7.671-1.077,15.395-2.469,22.957-4.14c2.759-0.603,5.462,1.129,6.065,3.87
					c0.606,2.744-1.126,5.46-3.872,6.066c-7.817,1.726-15.803,3.167-23.739,4.279
					C1607.673,1387.882,1607.434,1387.897,1607.199,1387.897z M1489.453,1381.582c-0.411,0-0.831-0.051-1.249-0.157
					c-7.754-1.958-15.541-4.253-23.143-6.823c-2.66-0.899-4.091-3.786-3.19-6.449c0.898-2.661,3.782-4.087,6.449-3.19
					c7.35,2.484,14.878,4.703,22.374,6.598c2.726,0.687,4.375,3.453,3.687,6.177
					C1493.798,1380.045,1491.728,1381.582,1489.453,1381.582z M1653.504,1377.668c-2.179,0-4.193-1.413-4.862-3.605
					c-0.821-2.688,0.696-5.531,3.382-6.351c7.409-2.257,14.832-4.841,22.059-7.678c2.607-1.027,5.565,0.26,6.595,2.875
					c1.027,2.615-0.262,5.568-2.878,6.595c-7.472,2.935-15.147,5.608-22.808,7.943
					C1654.498,1377.597,1653.998,1377.668,1653.504,1377.668z M1444.542,1366.402c-0.666,0-1.345-0.133-1.997-0.412
					c-7.356-3.145-14.683-6.626-21.781-10.343c-2.488-1.303-3.448-4.377-2.146-6.866c1.305-2.487,4.375-3.453,6.87-2.146
					c6.86,3.594,13.948,6.957,21.059,10.001c2.583,1.105,3.782,4.094,2.676,6.677
					C1448.397,1365.244,1446.519,1366.402,1444.542,1366.402z M1697.689,1360.317c-1.885,0-3.7-1.053-4.578-2.865
					c-1.229-2.526-0.179-5.571,2.348-6.8c6.962-3.385,13.888-7.093,20.586-11.021c2.418-1.419,5.538-0.609,6.962,1.815
					c1.421,2.423,0.609,5.54-1.815,6.962c-6.922,4.061-14.083,7.895-21.281,11.396
					C1699.193,1360.152,1698.434,1360.317,1697.689,1360.317z M1402.556,1344.417c-0.924,0-1.861-0.25-2.699-0.778
					c-6.78-4.253-13.481-8.829-19.92-13.599c-2.256-1.672-2.729-4.859-1.057-7.116c1.673-2.257,4.859-2.734,7.118-1.058
					c6.224,4.614,12.706,9.039,19.264,13.155c2.381,1.492,3.1,4.632,1.606,7.014
					C1405.901,1343.572,1404.249,1344.417,1402.556,1344.417z M1738.615,1336.305c-1.607,0-3.19-0.76-4.177-2.179
					c-1.606-2.307-1.04-5.477,1.265-7.083c6.356-4.425,12.623-9.16,18.625-14.074c2.179-1.784,5.382-1.459,7.161,0.714
					c1.779,2.174,1.457,5.381-0.715,7.159c-6.207,5.081-12.686,9.975-19.254,14.551
					C1740.632,1336.009,1739.619,1336.305,1738.615,1336.305z M1364.462,1316.183c-1.182,0-2.372-0.411-3.332-1.247
					c-6.045-5.25-11.96-10.806-17.588-16.513c-1.971-2.001-1.948-5.222,0.053-7.196c2.004-1.974,5.22-1.948,7.194,0.051
					c5.442,5.521,11.169,10.897,17.012,15.976c2.123,1.843,2.348,5.056,0.503,7.178
					C1367.301,1315.59,1365.886,1316.183,1364.462,1316.183z M1775.321,1306.262c-1.338,0-2.676-0.527-3.677-1.57
					c-1.941-2.03-1.871-5.252,0.159-7.194c5.598-5.354,11.056-10.997,16.23-16.773c1.871-2.092,5.088-2.274,7.184-0.397
					c2.093,1.875,2.269,5.091,0.394,7.184c-5.346,5.97-10.99,11.805-16.773,17.339
					C1777.852,1305.793,1776.587,1306.262,1775.321,1306.262z M1331.177,1282.405c-1.447,0-2.885-0.614-3.892-1.807
					c-5.17-6.126-10.162-12.53-14.835-19.034c-1.64-2.282-1.12-5.46,1.159-7.1c2.285-1.636,5.458-1.123,7.101,1.161
					c4.521,6.29,9.35,12.484,14.352,18.411c1.812,2.148,1.54,5.358-0.606,7.169
					C1333.499,1282.011,1332.337,1282.405,1331.177,1282.405z M1806.95,1270.928c-1.08,0-2.166-0.341-3.087-1.047
					c-2.232-1.706-2.656-4.899-0.951-7.131c4.71-6.159,9.231-12.575,13.438-19.067c1.53-2.358,4.684-3.029,7.035-1.502
					c2.358,1.529,3.031,4.679,1.504,7.037c-4.349,6.712-9.026,13.345-13.895,19.713
					C1809.994,1270.241,1808.48,1270.928,1806.95,1270.928z M1303.484,1243.886c-1.719,0-3.395-0.871-4.352-2.448
					c-4.164-6.858-8.105-13.959-11.715-21.107c-1.265-2.509-0.262-5.568,2.249-6.835c2.507-1.265,5.568-0.262,6.833,2.247
					c3.491,6.913,7.303,13.781,11.331,20.415c1.457,2.401,0.692,5.53-1.709,6.989
					C1305.296,1243.647,1304.385,1243.886,1303.484,1243.886z M1832.739,1231.149c-0.821,0-1.653-0.199-2.424-0.618
					c-2.468-1.341-3.385-4.43-2.044-6.899c3.69-6.797,7.161-13.832,10.318-20.91c1.146-2.565,4.144-3.718,6.721-2.575
					c2.564,1.144,3.716,4.154,2.574,6.719c-3.266,7.32-6.853,14.594-10.669,21.622
					C1836.293,1230.185,1834.544,1231.149,1832.739,1231.149z M1282.094,1201.524c-2.004,0-3.902-1.189-4.71-3.157
					c-3.044-7.408-5.83-15.041-8.284-22.687c-0.861-2.675,0.613-5.54,3.286-6.399c2.686-0.856,5.541,0.616,6.399,3.289
					c2.375,7.391,5.071,14.769,8.012,21.932c1.067,2.598-0.175,5.571-2.772,6.639
					C1283.392,1201.401,1282.736,1201.524,1282.094,1201.524z M1852.033,1187.871c-0.566,0-1.139-0.094-1.703-0.295
					c-2.646-0.941-4.031-3.849-3.09-6.497c2.587-7.292,4.922-14.786,6.936-22.275c0.732-2.713,3.511-4.313,6.234-3.592
					c2.713,0.73,4.323,3.521,3.591,6.235c-2.08,7.742-4.495,15.495-7.174,23.037
					C1856.087,1186.569,1854.126,1187.871,1852.033,1187.871z M1267.573,1156.357c-2.305,0-4.392-1.577-4.948-3.917
					c-1.845-7.795-3.402-15.761-4.634-23.676c-0.431-2.777,1.471-5.377,4.246-5.81c2.809-0.416,5.379,1.471,5.81,4.246
					c1.189,7.655,2.696,15.357,4.481,22.894c0.646,2.734-1.047,5.477-3.779,6.123
					C1268.354,1156.312,1267.96,1156.357,1267.573,1156.357z M1864.354,1142.078c-0.311,0-0.623-0.03-0.941-0.088
					c-2.759-0.515-4.581-3.171-4.068-5.934c1.421-7.613,2.557-15.38,3.379-23.085c0.295-2.796,2.825-4.801,5.598-4.52
					c2.792,0.298,4.816,2.806,4.518,5.599c-0.848,7.966-2.024,15.998-3.491,23.87
					C1868.892,1140.369,1866.755,1142.078,1864.354,1142.078z M1260.276,1109.5c-2.63,0-4.859-2.029-5.064-4.697
					c-0.613-7.943-0.924-16.051-0.924-24.096c0-6.169,0.186-12.417,0.55-18.572c0.166-2.802,2.507-4.932,5.379-4.778
					c2.805,0.167,4.942,2.575,4.776,5.379c-0.351,5.955-0.53,12-0.53,17.97c0,7.787,0.301,15.63,0.891,23.315
					c0.219,2.802-1.878,5.248-4.68,5.464C1260.541,1109.495,1260.408,1109.5,1260.276,1109.5z M1869.399,1094.93
					c-0.053,0-0.103,0-0.152-0.002c-2.809-0.083-5.018-2.428-4.935-5.237c0.086-2.981,0.132-5.975,0.129-8.979
					c0-4.75-0.113-9.581-0.334-14.36c-0.133-2.807,2.037-5.189,4.846-5.319c2.825-0.139,5.184,2.04,5.316,4.846
					c0.232,4.937,0.348,9.927,0.348,14.829c0.003,3.102-0.043,6.199-0.136,9.286C1874.4,1092.75,1872.138,1094.93,1869.399,1094.93z
					 M1867.146,1047.563c-2.527,0-4.72-1.883-5.041-4.457c-0.964-7.714-2.239-15.458-3.796-23.018
					c-0.563-2.751,1.209-5.442,3.961-6.007c2.723-0.566,5.439,1.204,6.008,3.96c1.606,7.817,2.925,15.826,3.922,23.803
					c0.348,2.789-1.63,5.331-4.418,5.679C1867.57,1047.55,1867.358,1047.563,1867.146,1047.563z M1262.233,1043.913
					c-0.232,0-0.464-0.015-0.699-0.048c-2.782-0.381-4.73-2.948-4.349-5.732c1.09-7.939,2.507-15.93,4.21-23.754
					c0.603-2.742,3.316-4.483,6.055-3.889c2.746,0.598,4.485,3.309,3.889,6.053c-1.646,7.567-3.017,15.296-4.071,22.974
					C1266.917,1042.066,1264.734,1043.913,1262.233,1043.913z M1857.62,1001.114c-2.209,0-4.243-1.451-4.885-3.678
					c-2.15-7.454-4.617-14.905-7.337-22.146c-0.987-2.632,0.344-5.565,2.974-6.552c2.627-0.987,5.568,0.343,6.552,2.974
					c2.812,7.489,5.366,15.195,7.588,22.901c0.778,2.701-0.778,5.52-3.478,6.3
					C1858.564,1001.049,1858.087,1001.114,1857.62,1001.114z M1272.326,997.583c-0.487,0-0.984-0.071-1.474-0.219
					c-2.69-0.812-4.213-3.65-3.402-6.341c2.315-7.668,4.962-15.342,7.87-22.806c1.02-2.622,3.985-3.907,6.585-2.897
					c2.62,1.02,3.915,3.968,2.895,6.586c-2.809,7.219-5.369,14.64-7.605,22.058C1276.529,996.164,1274.509,997.583,1272.326,997.583
					z M1840.95,956.699c-1.915,0-3.746-1.086-4.611-2.935c-3.292-7.037-6.896-14.016-10.712-20.743
					c-1.388-2.444-0.53-5.55,1.915-6.936c2.431-1.388,5.545-0.532,6.936,1.914c3.948,6.959,7.674,14.178,11.076,21.455
					c1.192,2.545,0.093,5.573-2.451,6.764C1842.404,956.545,1841.672,956.699,1840.95,956.699z M1289.513,953.41
					c-0.742,0-1.497-0.164-2.209-0.508c-2.531-1.222-3.59-4.263-2.368-6.793c3.491-7.231,7.3-14.393,11.318-21.289
					c1.414-2.431,4.538-3.249,6.956-1.835c2.428,1.414,3.249,4.528,1.835,6.956c-3.885,6.671-7.568,13.598-10.947,20.594
					C1293.219,952.35,1291.404,953.41,1289.513,953.41z M1817.559,915.415c-1.633,0-3.24-0.785-4.22-2.242
					c-4.332-6.419-8.973-12.755-13.795-18.833c-1.746-2.201-1.378-5.402,0.821-7.148c2.209-1.747,5.402-1.376,7.148,0.821
					c4.985,6.283,9.784,12.833,14.259,19.469c1.573,2.33,0.957,5.492-1.371,7.063
					C1819.53,915.133,1818.539,915.415,1817.559,915.415z M1313.368,912.449c-1,0-2.007-0.293-2.892-0.904
					c-2.312-1.6-2.888-4.768-1.288-7.078c4.558-6.583,9.43-13.073,14.481-19.29c1.772-2.18,4.972-2.514,7.158-0.739
					c2.179,1.772,2.511,4.977,0.739,7.158c-4.889,6.013-9.602,12.292-14.011,18.661
					C1316.567,911.684,1314.981,912.449,1313.368,912.449z M1788.063,878.26c-1.365,0-2.726-0.547-3.73-1.626
					c-5.273-5.679-10.834-11.222-16.531-16.477c-2.063-1.906-2.193-5.124-0.288-7.189c1.908-2.065,5.121-2.193,7.191-0.29
					c5.886,5.432,11.636,11.162,17.088,17.033c1.911,2.059,1.792,5.278-0.268,7.189
					C1790.544,877.81,1789.302,878.26,1788.063,878.26z M1343.29,875.653c-1.259,0-2.521-0.464-3.504-1.399
					c-2.037-1.936-2.12-5.157-0.182-7.194c5.525-5.811,11.341-11.475,17.283-16.829c2.083-1.876,5.306-1.717,7.184,0.374
					c1.881,2.087,1.712,5.303-0.374,7.184c-5.747,5.18-11.374,10.659-16.72,16.283
					C1345.977,875.123,1344.635,875.653,1343.29,875.653z M1753.199,846.105c-1.103,0-2.213-0.356-3.147-1.093
					c-6.085-4.798-12.431-9.415-18.866-13.726c-2.335-1.563-2.958-4.723-1.394-7.058c1.563-2.333,4.72-2.958,7.058-1.394
					c6.651,4.455,13.213,9.23,19.502,14.19c2.206,1.739,2.583,4.939,0.845,7.144
					C1756.193,845.441,1754.703,846.105,1753.199,846.105z M1378.526,843.902c-1.524,0-3.031-0.682-4.034-1.984
					c-1.716-2.226-1.298-5.421,0.927-7.135c6.346-4.886,12.967-9.586,19.681-13.969c2.352-1.533,5.511-0.874,7.042,1.481
					c1.537,2.353,0.874,5.505-1.477,7.042c-6.495,4.238-12.901,8.784-19.039,13.509
					C1380.702,843.558,1379.609,843.902,1378.526,843.902z M1713.81,819.721c-0.845,0-1.703-0.212-2.491-0.654
					c-6.757-3.801-13.742-7.378-20.755-10.632c-2.547-1.184-3.653-4.208-2.471-6.757c1.182-2.549,4.2-3.658,6.757-2.474
					c7.25,3.365,14.468,7.063,21.457,10.993c2.448,1.378,3.319,4.48,1.941,6.929C1717.314,818.786,1715.585,819.721,1713.81,819.721
					z M1418.256,817.968c-1.798,0-3.541-0.957-4.468-2.648c-1.348-2.464-0.44-5.556,2.024-6.904
					c7.035-3.85,14.309-7.467,21.616-10.751c2.574-1.156,5.575-0.007,6.727,2.555c1.153,2.562,0.007,5.573-2.554,6.726
					c-7.068,3.176-14.1,6.674-20.907,10.397C1419.919,817.765,1419.084,817.968,1418.256,817.968z M1670.827,799.778
					c-0.59,0-1.189-0.103-1.775-0.321c-7.254-2.699-14.71-5.146-22.162-7.272c-2.703-0.77-4.269-3.586-3.498-6.288
					c0.768-2.704,3.594-4.269,6.286-3.496c7.708,2.198,15.422,4.728,22.924,7.52c2.633,0.981,3.971,3.909,2.994,6.542
					C1674.832,798.511,1672.891,799.778,1670.827,799.778z M1461.547,798.511c-2.087,0-4.044-1.295-4.79-3.375
					c-0.947-2.645,0.431-5.556,3.074-6.504c7.552-2.703,15.293-5.139,23.013-7.239c2.693-0.739,5.508,0.859,6.244,3.572
					c0.739,2.711-0.861,5.508-3.574,6.245c-7.466,2.032-14.951,4.387-22.252,7C1462.696,798.415,1462.117,798.511,1461.547,798.511z
					 M1625.234,786.773c-0.335,0-0.676-0.033-1.017-0.103c-7.572-1.532-15.319-2.786-23.023-3.728
					c-2.789-0.34-4.776-2.877-4.435-5.667c0.341-2.787,2.878-4.789,5.667-4.432c7.969,0.972,15.978,2.269,23.812,3.854
					c2.752,0.556,4.534,3.241,3.975,5.995C1629.725,785.105,1627.602,786.773,1625.234,786.773z M1507.296,786.064
					c-2.395,0-4.528-1.701-4.992-4.142c-0.523-2.761,1.288-5.422,4.051-5.945c7.853-1.491,15.882-2.69,23.855-3.566
					c2.772-0.295,5.303,1.709,5.614,4.503c0.305,2.792-1.709,5.305-4.501,5.613c-7.714,0.846-15.478,2.007-23.073,3.446
					C1507.932,786.034,1507.61,786.064,1507.296,786.064z M1578.164,781.021c-0.076,0-0.152-0.002-0.228-0.005
					c-7.704-0.338-15.594-0.391-23.341-0.139c-2.852,0.101-5.157-2.112-5.25-4.92c-0.093-2.807,2.11-5.159,4.919-5.248
					c8.006-0.258,16.157-0.207,24.123,0.143c2.806,0.124,4.982,2.499,4.856,5.306
					C1583.122,778.888,1580.87,781.021,1578.164,781.021z"/>
			</g>
		</g>
		<path style="fill:#7D97F4;" d="M1241.623,2715.359l1159.357,0.403c0.305,0,0.452,0.378,0.228,0.588l-69.369,64.898
			c-6.867,5.937-26.055,6.287-34.041,0.62l-5.574-3.956c-8.013-5.686-27.287-5.309-34.094,0.667l-91.351,80.199
			c-5.942,5.217-21.927,6.337-31.338,2.197l-61.69-27.145c-7.585-3.337-19.96-3.361-27.612-0.053l-191.231,68.44
			c-23.684,8.476-57.954,8.315-81.212-0.381l-202.27-75.631c-7.887-2.177-18.217-1.616-24.629,1.339l-46.328,21.351
			c-8.734,4.025-23.849,3.392-30.654-1.285l-84.048-57.753c-6.942-4.77-22.463-5.313-31.07-1.087l0,0
			c-8.643,4.244-24.242,3.675-31.139-1.135L1241.623,2715.359z"/>
		<path style="fill:#BDD0FB;" d="M1240.981,2717.221l1160.715-0.627c4.298-0.002,6.833-4.822,4.399-8.365l-65.717-95.676
			c-7.01-9.432-26.599-9.987-34.751-0.986l-5.691,6.284c-8.181,9.033-27.857,8.434-34.806-1.06l-93.258-127.409
			c-6.066-8.287-22.385-10.068-31.992-3.49l-62.978,43.124c-7.743,5.302-20.377,5.34-28.189,0.084l-195.224-108.728
			c-24.178-13.466-59.164-13.211-82.908,0.605l-206.494,120.152c-8.052,3.459-18.597,2.566-25.143-2.128l-47.296-33.92
			c-8.916-6.395-24.347-5.388-31.295,2.041l-85.803,91.75c-7.087,7.578-22.932,8.441-31.718,1.727l0,0
			c-8.823-6.742-24.749-5.838-31.79,1.804l-75.649,103.846C1232.07,2710.815,1235.333,2717.225,1240.981,2717.221z"/>
		<g>
			
				<linearGradient id="SVGID_00000075152285158105745010000005908459253742463678_" gradientUnits="userSpaceOnUse" x1="3900.1387" y1="1126.918" x2="1885.4507" y2="4810.3306">
				<stop  offset="0" style="stop-color:#FEBBBA"/>
				<stop  offset="1" style="stop-color:#FF928E"/>
			</linearGradient>
			
				<circle style="fill:url(#SVGID_00000075152285158105745010000005908459253742463678_);" cx="2899.471" cy="2956.417" r="298.583"/>
			
				<linearGradient id="SVGID_00000040554994812437931090000013845477444364039079_" gradientUnits="userSpaceOnUse" x1="3500.1599" y1="871.1534" x2="1432.6957" y2="4651.0557">
				<stop  offset="0" style="stop-color:#FEBBBA"/>
				<stop  offset="1" style="stop-color:#FF928E"/>
			</linearGradient>
			<path style="fill:url(#SVGID_00000040554994812437931090000013845477444364039079_);" d="M3001.558,2936.424h-222.922
				c-14.697,0-26.61-11.914-26.61-26.61v-1846.59c0-14.696,11.914-26.61,26.61-26.61h222.922c14.696,0,26.61,11.914,26.61,26.61
				v1846.59C3028.168,2924.51,3016.254,2936.424,3001.558,2936.424z"/>
			<path style="opacity:0.66;fill:#FFFFFF;" d="M2961.427,2978.922h-139.056c-9.167,0-16.599-7.432-16.599-16.599V1134.721
				c0-9.167,7.432-16.599,16.599-16.599h139.056c9.167,0,16.599,7.432,16.599,16.599v1827.602
				C2978.026,2971.49,2970.594,2978.922,2961.427,2978.922z"/>
			<path style="opacity:0.66;fill:#FFFFFF;" d="M2998.852,2698.427V1169.985c0-61.07-49.161-110.576-110.231-110.576l0,0
				c-61.069,0-110.231,49.507-110.231,110.576v1533.268c-88.185,43.324-152.791,135.883-152.791,243.095
				c0,148.716,120.843,269.274,269.56,269.274c148.715,0,268.502-120.558,268.502-269.274
				C3163.661,2834.977,3100.604,2739.407,2998.852,2698.427z"/>
			
				<linearGradient id="SVGID_00000007387739269963882790000001444909117349473936_" gradientUnits="userSpaceOnUse" x1="2810.6431" y1="3197.7134" x2="2948.3203" y2="1509.8756">
				<stop  offset="0" style="stop-color:#E1473D"/>
				<stop  offset="1" style="stop-color:#E9605A"/>
			</linearGradient>
			<path style="fill:url(#SVGID_00000007387739269963882790000001444909117349473936_);" d="M2974.219,2963.22h-157.558
				c-4.058,0-7.348-3.29-7.348-7.348V1360.509c0-4.977,4.035-9.012,9.012-9.012h150.372c7.108,0,12.87,5.762,12.87,12.87v1591.505
				C2981.567,2959.93,2978.277,2963.22,2974.219,2963.22z"/>
			
				<linearGradient id="SVGID_00000091016620398135700290000017699444550252363691_" gradientUnits="userSpaceOnUse" x1="2870.0498" y1="3200.6372" x2="3007.4063" y2="1516.7307">
				<stop  offset="0" style="stop-color:#E1473D"/>
				<stop  offset="1" style="stop-color:#E9605A"/>
			</linearGradient>
			
				<circle style="fill:url(#SVGID_00000091016620398135700290000017699444550252363691_);" cx="2891.899" cy="2932.78" r="242.273"/>
			
				<linearGradient id="SVGID_00000160165180245813872950000017747324579283911358_" gradientUnits="userSpaceOnUse" x1="4387.3633" y1="1258.8669" x2="3879.3135" y2="1826.3695">
				<stop  offset="0" style="stop-color:#09005D"/>
				<stop  offset="1" style="stop-color:#1A0F91"/>
			</linearGradient>
			<path style="fill:url(#SVGID_00000160165180245813872950000017747324579283911358_);" d="M3232.661,2673.707h-179.957
				c-2.597,0-4.723-2.125-4.723-4.723v-39.563c0-2.597,2.125-4.723,4.723-4.723h179.957c2.598,0,4.723,2.125,4.723,4.723v39.563
				C3237.384,2671.582,3235.259,2673.707,3232.661,2673.707z"/>
			
				<linearGradient id="SVGID_00000072260479143276093960000016078248557040061857_" gradientUnits="userSpaceOnUse" x1="4150.5381" y1="1074.8422" x2="3642.4883" y2="1642.3448">
				<stop  offset="0" style="stop-color:#09005D"/>
				<stop  offset="1" style="stop-color:#1A0F91"/>
			</linearGradient>
			<path style="fill:url(#SVGID_00000072260479143276093960000016078248557040061857_);" d="M3232.661,2225.143h-179.957
				c-2.597,0-4.723-2.125-4.723-4.723v-39.563c0-2.597,2.125-4.723,4.723-4.723h179.957c2.598,0,4.723,2.125,4.723,4.723v39.563
				C3237.384,2223.018,3235.259,2225.143,3232.661,2225.143z"/>
			
				<linearGradient id="SVGID_00000161620364405931969750000009917242591762926526_" gradientUnits="userSpaceOnUse" x1="4337.231" y1="1169.6113" x2="3818.698" y2="1748.8241">
				<stop  offset="0" style="stop-color:#09005D"/>
				<stop  offset="1" style="stop-color:#1A0F91"/>
			</linearGradient>
			<path style="fill:url(#SVGID_00000161620364405931969750000009917242591762926526_);" d="M3174.347,2561.021h-121.644
				c-2.597,0-4.723-2.125-4.723-4.723v-39.563c0-2.597,2.125-4.723,4.723-4.723h121.644c2.597,0,4.723,2.125,4.723,4.723v39.563
				C3179.07,2558.896,3176.945,2561.021,3174.347,2561.021z"/>
			
				<linearGradient id="SVGID_00000006700345662564363840000006095166292973242269_" gradientUnits="userSpaceOnUse" x1="4276.04" y1="1124.4023" x2="3757.5071" y2="1703.6151">
				<stop  offset="0" style="stop-color:#09005D"/>
				<stop  offset="1" style="stop-color:#1A0F91"/>
			</linearGradient>
			<path style="fill:url(#SVGID_00000006700345662564363840000006095166292973242269_);" d="M3174.347,2447.461h-121.644
				c-2.597,0-4.723-2.125-4.723-4.723v-39.563c0-2.597,2.125-4.722,4.723-4.722h121.644c2.597,0,4.723,2.125,4.723,4.722v39.563
				C3179.07,2445.336,3176.945,2447.461,3174.347,2447.461z"/>
			
				<linearGradient id="SVGID_00000015345084775935818740000016725356194537400737_" gradientUnits="userSpaceOnUse" x1="4215.1616" y1="1079.4272" x2="3696.6284" y2="1658.6399">
				<stop  offset="0" style="stop-color:#09005D"/>
				<stop  offset="1" style="stop-color:#1A0F91"/>
			</linearGradient>
			<path style="fill:url(#SVGID_00000015345084775935818740000016725356194537400737_);" d="M3174.347,2334.483h-121.644
				c-2.597,0-4.723-2.125-4.723-4.723v-39.563c0-2.597,2.125-4.723,4.723-4.723h121.644c2.597,0,4.723,2.125,4.723,4.723v39.563
				C3179.07,2332.358,3176.945,2334.483,3174.347,2334.483z"/>
			
				<linearGradient id="SVGID_00000107559842032722942310000017099767248597937334_" gradientUnits="userSpaceOnUse" x1="3904.0266" y1="883.4935" x2="3395.9768" y2="1450.9963">
				<stop  offset="0" style="stop-color:#09005D"/>
				<stop  offset="1" style="stop-color:#1A0F91"/>
			</linearGradient>
			<path style="fill:url(#SVGID_00000107559842032722942310000017099767248597937334_);" d="M3234.377,1756.519H3054.42
				c-2.598,0-4.723-2.125-4.723-4.723v-39.563c0-2.598,2.125-4.723,4.723-4.723h179.957c2.597,0,4.723,2.125,4.723,4.723v39.563
				C3239.1,1754.394,3236.975,1756.519,3234.377,1756.519z"/>
			
				<linearGradient id="SVGID_00000050653640067941496840000010586586340567689359_" gradientUnits="userSpaceOnUse" x1="4085.6001" y1="983.9813" x2="3567.0669" y2="1563.194">
				<stop  offset="0" style="stop-color:#09005D"/>
				<stop  offset="1" style="stop-color:#1A0F91"/>
			</linearGradient>
			<path style="fill:url(#SVGID_00000050653640067941496840000010586586340567689359_);" d="M3176.064,2092.397H3054.42
				c-2.598,0-4.723-2.125-4.723-4.723v-39.563c0-2.598,2.125-4.723,4.723-4.723h121.644c2.597,0,4.722,2.125,4.722,4.723v39.563
				C3180.786,2090.272,3178.661,2092.397,3176.064,2092.397z"/>
			
				<linearGradient id="SVGID_00000018925437784661530750000017951122790698887866_" gradientUnits="userSpaceOnUse" x1="4024.4092" y1="938.7723" x2="3505.8762" y2="1517.9851">
				<stop  offset="0" style="stop-color:#09005D"/>
				<stop  offset="1" style="stop-color:#1A0F91"/>
			</linearGradient>
			<path style="fill:url(#SVGID_00000018925437784661530750000017951122790698887866_);" d="M3176.064,1978.836H3054.42
				c-2.598,0-4.723-2.125-4.723-4.723v-39.563c0-2.598,2.125-4.723,4.723-4.723h121.644c2.597,0,4.722,2.125,4.722,4.723v39.563
				C3180.786,1976.711,3178.661,1978.836,3176.064,1978.836z"/>
			
				<linearGradient id="SVGID_00000127765437114722117720000014430586141786352796_" gradientUnits="userSpaceOnUse" x1="3963.5305" y1="893.7972" x2="3444.9976" y2="1473.01">
				<stop  offset="0" style="stop-color:#09005D"/>
				<stop  offset="1" style="stop-color:#1A0F91"/>
			</linearGradient>
			<path style="fill:url(#SVGID_00000127765437114722117720000014430586141786352796_);" d="M3176.064,1865.859H3054.42
				c-2.598,0-4.723-2.125-4.723-4.723v-39.563c0-2.597,2.125-4.723,4.723-4.723h121.644c2.597,0,4.722,2.125,4.722,4.723v39.563
				C3180.786,1863.733,3178.661,1865.859,3176.064,1865.859z"/>
			
				<linearGradient id="SVGID_00000057845339256840387890000005537423506380021693_" gradientUnits="userSpaceOnUse" x1="3658.5093" y1="692.7139" x2="3150.4595" y2="1260.2167">
				<stop  offset="0" style="stop-color:#09005D"/>
				<stop  offset="1" style="stop-color:#1A0F91"/>
			</linearGradient>
			<path style="fill:url(#SVGID_00000057845339256840387890000005537423506380021693_);" d="M3234.377,1291.491H3054.42
				c-2.598,0-4.723-2.125-4.723-4.723v-39.563c0-2.598,2.125-4.723,4.723-4.723h179.957c2.597,0,4.723,2.125,4.723,4.723v39.563
				C3239.1,1289.366,3236.975,1291.491,3234.377,1291.491z"/>
			
				<linearGradient id="SVGID_00000032610645687487586520000009961190287402400131_" gradientUnits="userSpaceOnUse" x1="3835.0168" y1="798.8602" x2="3316.4839" y2="1378.073">
				<stop  offset="0" style="stop-color:#09005D"/>
				<stop  offset="1" style="stop-color:#1A0F91"/>
			</linearGradient>
			<path style="fill:url(#SVGID_00000032610645687487586520000009961190287402400131_);" d="M3176.064,1627.369H3054.42
				c-2.598,0-4.723-2.125-4.723-4.723v-39.563c0-2.597,2.125-4.723,4.723-4.723h121.644c2.597,0,4.722,2.125,4.722,4.723v39.563
				C3180.786,1625.244,3178.661,1627.369,3176.064,1627.369z"/>
			
				<linearGradient id="SVGID_00000179638573076438058550000014901027085698647179_" gradientUnits="userSpaceOnUse" x1="3773.8235" y1="753.654" x2="3255.2905" y2="1332.8667">
				<stop  offset="0" style="stop-color:#09005D"/>
				<stop  offset="1" style="stop-color:#1A0F91"/>
			</linearGradient>
			<path style="fill:url(#SVGID_00000179638573076438058550000014901027085698647179_);" d="M3176.064,1513.808H3054.42
				c-2.598,0-4.723-2.125-4.723-4.723v-39.563c0-2.598,2.125-4.723,4.723-4.723h121.644c2.597,0,4.722,2.125,4.722,4.723v39.563
				C3180.786,1511.683,3178.661,1513.808,3176.064,1513.808z"/>
			
				<linearGradient id="SVGID_00000008867663834853344920000013703794184673053331_" gradientUnits="userSpaceOnUse" x1="3712.9441" y1="708.6797" x2="3194.4111" y2="1287.8925">
				<stop  offset="0" style="stop-color:#09005D"/>
				<stop  offset="1" style="stop-color:#1A0F91"/>
			</linearGradient>
			<path style="fill:url(#SVGID_00000008867663834853344920000013703794184673053331_);" d="M3176.064,1400.831H3054.42
				c-2.598,0-4.723-2.125-4.723-4.723v-39.563c0-2.598,2.125-4.723,4.723-4.723h121.644c2.597,0,4.722,2.125,4.722,4.723v39.563
				C3180.786,1398.705,3178.661,1400.831,3176.064,1400.831z"/>
		</g>
		<g>
			
				<linearGradient id="SVGID_00000111159595133736938260000007230367811762036359_" gradientUnits="userSpaceOnUse" x1="19.8481" y1="3114.3906" x2="-515.2529" y2="3696.4309" gradientTransform="matrix(1 0 0 1 955.1633 0)">
				<stop  offset="0" style="stop-color:#09005D"/>
				<stop  offset="1" style="stop-color:#1A0F91"/>
			</linearGradient>
			<path style="fill:url(#SVGID_00000111159595133736938260000007230367811762036359_);" d="M805.865,3157.749
				c0,0-5.542,31.372-8.258,62.427c-1.062,12.136,8.295,22.675,20.468,23.183c41.356,1.722,129.818,5.071,161.562,3.655
				c4.772-0.213,7.892-5.098,6.126-9.537c-1.48-3.719-4.334-6.725-7.971-8.397l-146.124-67.158L805.865,3157.749z"/>
			
				<linearGradient id="SVGID_00000031889942453211447470000001353484869037117354_" gradientUnits="userSpaceOnUse" x1="-153.8377" y1="3157.6201" x2="-106.3077" y2="3157.6201" gradientTransform="matrix(1 0 0 1 955.1633 0)">
				<stop  offset="0" style="stop-color:#FEBBBA"/>
				<stop  offset="1" style="stop-color:#FF928E"/>
			</linearGradient>
			<path style="fill:url(#SVGID_00000031889942453211447470000001353484869037117354_);" d="M801.326,3139.316l4.452,37.525
				c0,0,25.597,11.916,43.078-1.501l-10.6-41.819L801.326,3139.316z"/>
			
				<linearGradient id="SVGID_00000155129982809294924000000015481953229386401454_" gradientUnits="userSpaceOnUse" x1="61.9815" y1="2456.1658" x2="-393.338" y2="3073.2927" gradientTransform="matrix(1 0 0 1 955.1633 0)">
				<stop  offset="0" style="stop-color:#09005D"/>
				<stop  offset="1" style="stop-color:#1A0F91"/>
			</linearGradient>
			<path style="fill:url(#SVGID_00000155129982809294924000000015481953229386401454_);" d="M804.671,2433.83
				c-1.923,9.8-10.323,489.018,40.902,703.772c0.836,3.504-0.94,7.116-4.276,8.479c-7.857,3.209-23.259,7.858-41.718,8.478
				c-5.716,0.192-10.842-3.523-12.454-9.011c-14.642-49.826-84.807-299.47-93.96-537.947c-10.228-266.475,0-9.073,0-9.073
				l5.998-164.719L804.671,2433.83z"/>
			
				<linearGradient id="SVGID_00000170957874613461366080000003609969962649092777_" gradientUnits="userSpaceOnUse" x1="-100.1936" y1="3004.031" x2="-635.294" y2="3586.0706" gradientTransform="matrix(1 0 0 1 955.1633 0)">
				<stop  offset="0" style="stop-color:#09005D"/>
				<stop  offset="1" style="stop-color:#1A0F91"/>
			</linearGradient>
			<path style="fill:url(#SVGID_00000170957874613461366080000003609969962649092777_);" d="M637.774,3174.116
				c0,0-8.821,15.837-17.362,57.922c-1.542,7.601,3.768,14.875,11.487,15.634c13.656,1.343,34.679,3.07,51.518,2.954
				c7.763-0.053,13.821-6.813,12.886-14.519c-1.866-15.362-7.677-40.564-25.628-60.208L637.774,3174.116z"/>
			
				<linearGradient id="SVGID_00000145747171867753763800000012539374300229841562_" gradientUnits="userSpaceOnUse" x1="-325.1365" y1="3155.1826" x2="-284.0985" y2="3155.1826" gradientTransform="matrix(1 0 0 1 955.1633 0)">
				<stop  offset="0" style="stop-color:#FEBBBA"/>
				<stop  offset="1" style="stop-color:#FF928E"/>
			</linearGradient>
			<path style="fill:url(#SVGID_00000145747171867753763800000012539374300229841562_);" d="M630.027,3125.85l10.403,56.748
				c0,0,10.287,7.651,30.635,2.104l-4.966-61.057L630.027,3125.85z"/>
			
				<linearGradient id="SVGID_00000113353171974067387050000007870811247387265691_" gradientUnits="userSpaceOnUse" x1="-19.1672" y1="2396.2932" x2="-474.4867" y2="3013.4202" gradientTransform="matrix(1 0 0 1 955.1633 0)">
				<stop  offset="0" style="stop-color:#09005D"/>
				<stop  offset="1" style="stop-color:#1A0F91"/>
			</linearGradient>
			<path style="fill:url(#SVGID_00000113353171974067387050000007870811247387265691_);" d="M601.922,2448.535
				c-41.895,252.84,9.088,624.914,26.282,697.738c1.053,4.459,4.651,7.875,9.17,8.624c7.675,1.272,20.311,2.311,32.768-1.308
				c4.292-1.247,7.308-5.118,7.483-9.584c2.307-58.876-1.845-420.317,37.191-563.16c1.979-7.239,6.399-13.552,12.515-17.901
				l75.767-53.864l5.809-87.067L601.922,2448.535z"/>
			
				<linearGradient id="SVGID_00000159447017695243013170000009465092062690677665_" gradientUnits="userSpaceOnUse" x1="-368.8853" y1="2225.1833" x2="42.3522" y2="2225.1833" gradientTransform="matrix(1 0 0 1 955.1633 0)">
				<stop  offset="0" style="stop-color:#09005D"/>
				<stop  offset="1" style="stop-color:#1A0F91"/>
			</linearGradient>
			<path style="fill:url(#SVGID_00000159447017695243013170000009465092062690677665_);" d="M868.879,1969.453
				c-125.552-2.075-264.084,32.966-264.084,32.966c-37.424,218.37-6.544,470.244-6.544,470.244
				c97.199,25.49,206.845-15.584,206.845-15.584c16.155-91.273,91.531-348.146,91.531-348.146
				c61.344-7.614,48.021-57.953,89.636-81.352c-31.743-36.795,17.15-18.954,10.65-46.63
				C952.522,1994.746,907.603,1970.093,868.879,1969.453z"/>
			<path style="fill:#FFFFFF;" d="M1239.736,1784.522c-12.333-14.897-27.943-7.85-27.943-7.85
				c-18.476,78.045-115.353,141.325-214.88,172.256c6.5,27.677,21.464,74.497,53.207,111.292
				C1215.295,1967.349,1239.736,1784.522,1239.736,1784.522z"/>
			<g>
				
					<linearGradient id="SVGID_00000047770836281710574490000017536532899521369221_" gradientUnits="userSpaceOnUse" x1="10217.2988" y1="1876.9113" x2="10380.2402" y2="2247.6389" gradientTransform="matrix(-1 0 0 1 11402.9414 0)">
					<stop  offset="0" style="stop-color:#FEBBBA"/>
					<stop  offset="1" style="stop-color:#FF928E"/>
				</linearGradient>
				<path style="fill:url(#SVGID_00000047770836281710574490000017536532899521369221_);" d="M1236.743,1788.311
					c1.291,4.102-13.654,10.35-22.453-6.43c-0.308-8.042-5.198-42.494-0.393-49.046c25.594-34.892,75.213-78.631,75.213-78.631
					c8.386,8.275,1.477,16.404,1.477,16.404l-24.071,25.075c5.034,9.099,11.176,16.778,14.054,27.784
					c2.18,8.334,0.847,17.24-3.363,24.825c-4.225,7.612-9.99,17.507-15.44,25.251
					C1251.451,1788.2,1236.743,1788.311,1236.743,1788.311z"/>
				
					<linearGradient id="SVGID_00000173868133830916319040000000572209531188993416_" gradientUnits="userSpaceOnUse" x1="283.4072" y1="1753.4457" x2="351.3956" y2="1648.9135" gradientTransform="matrix(1 0 0 1 955.1633 0)">
					<stop  offset="0" style="stop-color:#FEBBBA"/>
					<stop  offset="1" style="stop-color:#FF928E"/>
				</linearGradient>
				<path style="fill:url(#SVGID_00000173868133830916319040000000572209531188993416_);" d="M1255.987,1711.954l-21.936,18.595
					l-6.887,18.514l19.557,21.697c0,0,6.576-36.735,11.464-44.686C1263.072,1718.123,1260.538,1714.278,1255.987,1711.954z"/>
			</g>
			
				<linearGradient id="SVGID_00000106846821698567961870000013436184159321841589_" gradientUnits="userSpaceOnUse" x1="468.2372" y1="2106.4351" x2="652.9516" y2="2106.4351">
				<stop  offset="0" style="stop-color:#DAE3FE"/>
				<stop  offset="1" style="stop-color:#E9EFFD"/>
			</linearGradient>
			<path style="fill:url(#SVGID_00000106846821698567961870000013436184159321841589_);" d="M652.952,2123.99l-48.156-121.571
				c0,0-117.272,79.681-136.558,180.708c22.158,1.632,62.48,7.396,101.947,27.324C578.857,2162.748,652.952,2123.99,652.952,2123.99
				z"/>
			
				<linearGradient id="SVGID_00000141423435858777234410000002968676292273054906_" gradientUnits="userSpaceOnUse" x1="-253.6393" y1="1933.0493" x2="-132.1452" y2="1933.0493" gradientTransform="matrix(1 0 0 1 955.1633 0)">
				<stop  offset="0" style="stop-color:#FEBBBA"/>
				<stop  offset="1" style="stop-color:#FF928E"/>
			</linearGradient>
			<path style="fill:url(#SVGID_00000141423435858777234410000002968676292273054906_);" d="M741.706,1867.525l-39.949,115.529
				c-0.661,1.914,0.125,4.033,1.897,5.013c10.89,6.021,50.123,23.424,97.402-6.552c4.925-3.122,8.278-8.215,9.026-13.999
				l12.936-99.99H741.706z"/>
			
				<linearGradient id="SVGID_00000153704647259494051020000006962091225190073990_" gradientUnits="userSpaceOnUse" x1="566.2186" y1="2384.324" x2="784.868" y2="2384.324">
				<stop  offset="0" style="stop-color:#DAE3FE"/>
				<stop  offset="1" style="stop-color:#E9EFFD"/>
			</linearGradient>
			<path style="fill:url(#SVGID_00000153704647259494051020000006962091225190073990_);" d="M665.887,1989.413l47.67-40.485
				l71.311,174.101l-52.003,691.833l-162.365,4.856c-1.148,0.034-2.259-0.408-3.07-1.222c-0.811-0.814-1.248-1.927-1.209-3.075
				l22.668-665.581c0,0,0.622-143.823,15.906-147.422C620.08,1998.821,665.887,1989.413,665.887,1989.413z"/>
			<path style="fill:#FFFFFF;" d="M784.868,2114.092l27.618-165.164l23.639,20.779l49.833-0.484l10.669,139.709l-71.106,714.909
				c-0.112,1.129-0.681,2.163-1.574,2.862c-0.893,0.699-2.033,1.003-3.156,0.841l-87.925-12.683L784.868,2114.092z"/>
			<path style="fill:#FFFFFF;" d="M879.413,1969.411c0,0,80.091-5.519,126.327-23.317c54.296,96.501,68.413,99.333,68.413,99.333
				s-65.768,58.344-177.527,63.504C784.868,2114.092,879.413,1969.411,879.413,1969.411z"/>
			
				<linearGradient id="SVGID_00000157295870270903741940000016631936980893070476_" gradientUnits="userSpaceOnUse" x1="-149.7416" y1="2157.6863" x2="77.0349" y2="1994.4828" gradientTransform="matrix(1 0 0 1 955.1633 0)">
				<stop  offset="0" style="stop-color:#9CFFFB"/>
				<stop  offset="1" style="stop-color:#9BFFFA"/>
			</linearGradient>
			<polygon style="fill:url(#SVGID_00000157295870270903741940000016631936980893070476_);" points="814.093,2121.618 
				814.093,2138.552 878.685,2134.789 878.685,2115.973 			"/>
			<path style="fill:#91B3FA;" d="M781.021,2163.887c-0.397,0-0.802-0.095-1.184-0.298l-54.789-29.425
				c-0.691-0.373-1.168-1.052-1.287-1.831l-7.413-49.966l-19.434-3.448c-0.922-0.163-1.669-0.826-1.947-1.72l-21.142-68.677
				c-0.405-1.319,0.334-2.713,1.652-3.118c1.311-0.413,2.709,0.334,3.115,1.649l20.697,67.223l19.696,3.496
				c1.057,0.187,1.875,1.029,2.034,2.09l7.492,50.503l53.693,28.833c1.208,0.651,1.668,2.165,1.017,3.377
				C782.769,2163.41,781.911,2163.887,781.021,2163.887z"/>
			<path style="fill:#BDD0FB;" d="M794.043,2146.773c-0.318,0-0.636-0.079-0.93-0.246c-0.898-0.512-1.208-1.653-0.699-2.55
				l28.65-50.225l-4.711-28.272c-0.135-0.791,0.254-1.581,0.961-1.958l22.794-12.128l-5.848-81.552
				c-0.072-1.033,0.699-1.927,1.732-2.002c1.2-0.131,1.931,0.707,2.002,1.732l5.935,82.768c0.056,0.739-0.334,1.438-0.985,1.788
				l-22.683,12.069l4.6,27.601c0.072,0.421-0.008,0.858-0.214,1.231l-28.976,50.801
				C795.323,2146.436,794.695,2146.773,794.043,2146.773z"/>
			<g>
				
					<linearGradient id="SVGID_00000067201498412258244180000016044583178298737291_" gradientUnits="userSpaceOnUse" x1="465.7095" y1="2258.0066" x2="773.005" y2="2258.0066">
					<stop  offset="0" style="stop-color:#DAE3FE"/>
					<stop  offset="1" style="stop-color:#E9EFFD"/>
				</linearGradient>
				<path style="fill:url(#SVGID_00000067201498412258244180000016044583178298737291_);" d="M755.58,2234.823
					c0,0-131.667,74.413-176.093,10.873c-9.224-13.193-11.429-26.305-9.157-38.806c-39.467-19.928-79.789-25.692-101.947-27.324
					c-5.815,30.457-2.741,62.849,15.156,95.587c77.82,142.355,289.466-7.867,289.466-7.867L755.58,2234.823z"/>
				<g>
					<path style="fill:#BDD0FB;" d="M739.76,2328.962l71.859-250.948c0.816-2.848,3.246-4.927,6.189-5.269
						c13.02-1.519,50.745-5.784,94.303-9.468c52.468-4.438,113.397-8.035,149.807-4.975c5.176,0.434,8.304,5.91,6.002,10.567
						c-20.705,41.888-105.872,212.281-148.52,268.099c-1.413,1.849-3.598,2.93-5.925,2.909l-166.726-1.552
						C741.899,2338.281,738.425,2333.627,739.76,2328.962z"/>
					<path style="fill:#7D97F4;" d="M919.566,2041.521l52.099-8.681c2.775-0.462,5.047,2.189,4.166,4.86l-5.158,15.628
						c-0.449,1.36-1.636,2.345-3.056,2.535l-50.135,6.697c-2.594,0.346-4.733-2.011-4.136-4.558l3.193-13.645
						C916.883,2042.888,918.077,2041.769,919.566,2041.521z"/>
					<path style="fill:#7D97F4;" d="M880.555,2085.627l4.292-22.356c0.43-2.243,2.282-3.937,4.553-4.167l105.228-10.678
						c3.542-0.359,6.378,2.887,5.547,6.348l-6.691,27.858c-0.535,2.229-2.475,3.839-4.765,3.954l-102.829,5.177
						C882.543,2091.931,879.924,2088.918,880.555,2085.627z"/>
					
						<linearGradient id="SVGID_00000169535208156332083900000016900471456748305568_" gradientUnits="userSpaceOnUse" x1="-204.9737" y1="2225.7866" x2="-109.2385" y2="2225.7866" gradientTransform="matrix(1 0 0 1 955.1633 0)">
						<stop  offset="0" style="stop-color:#FEBBBA"/>
						<stop  offset="1" style="stop-color:#FF928E"/>
					</linearGradient>
					<path style="fill:url(#SVGID_00000169535208156332083900000016900471456748305568_);" d="M757.122,2268.333
						c0,0-10.01-41.161-5.972-55.764c4.038-14.604,11.861-33.379,37.938-29.207c26.077,4.172,56.838,15.158,56.838,15.158
						s-1.554,19.021-21.373,12.884l12.29,9.51c0,0-1.756,15.23-18.497,7.094l11.431,12.612c0,0-7.189,12.509-19.506,4.486
						C797.953,2237.082,792.049,2273.29,757.122,2268.333z"/>
				</g>
			</g>
			<path style="fill:#91B3FA;" d="M631.615,2272.543c-12.362,0-23.716-1.827-32.368-6.578c-1.208-0.659-1.653-2.177-0.985-3.385
				c0.659-1.208,2.169-1.652,3.385-0.985c34.744,19.076,121.027-13.769,121.885-14.103c0.262-0.092,16.796-5.84,22.667-17.285
				c0.628-1.223,2.121-1.716,3.353-1.084c1.224,0.628,1.708,2.133,1.081,3.357c-6.793,13.26-24.646,19.445-25.4,19.704
				C722.53,2253.225,671.785,2272.543,631.615,2272.543z"/>
			<path style="fill:#91B3FA;" d="M584.143,2338.865c-1.343,0-2.447-1.061-2.495-2.407c-0.048-1.378,1.033-2.534,2.407-2.582
				c99.615-3.428,156.438-49.041,157.002-49.501c1.065-0.87,2.638-0.711,3.512,0.35c0.874,1.064,0.715,2.638-0.35,3.508
				c-0.572,0.473-58.595,47.138-159.989,50.634C584.199,2338.865,584.167,2338.865,584.143,2338.865z"/>
			<g>
				
					<linearGradient id="SVGID_00000131362424138497373670000009619569185412320129_" gradientUnits="userSpaceOnUse" x1="-740.9622" y1="-923.2658" x2="-909.5214" y2="-700.2757" gradientTransform="matrix(0.8116 -0.5843 0.5843 0.8116 1950.4146 2074.8411)">
					<stop  offset="0" style="stop-color:#FEBBBA"/>
					<stop  offset="1" style="stop-color:#FF928E"/>
				</linearGradient>
				<path style="fill:url(#SVGID_00000131362424138497373670000009619569185412320129_);" d="M835.86,1738.344
					c1.299,1.803,41.821,143.042,41.821,143.042l-81.137,21.423l-58.295-128.159C738.249,1774.65,814.122,1708.15,835.86,1738.344z"
					/>
				
					<linearGradient id="SVGID_00000144299914945926382410000010968785135376906657_" gradientUnits="userSpaceOnUse" x1="-869.6949" y1="-869.7145" x2="-668.3481" y2="-869.7145" gradientTransform="matrix(0.8116 -0.5843 0.5843 0.8116 1950.4146 2074.8411)">
					<stop  offset="0" style="stop-color:#09005D"/>
					<stop  offset="1" style="stop-color:#1A0F91"/>
				</linearGradient>
				<path style="fill:url(#SVGID_00000144299914945926382410000010968785135376906657_);" d="M770.47,1784.136
					c-1.988,3.167-2.404,7.052-1.126,10.567l25.037,68.858c0.38,1.045,0.884,2.021,1.539,2.919
					c3.609,4.955,16.366,19.803,31.167,5.827c12.615-11.911,24.372-22.684,35.362-25.936c6.417-1.899,13.123,1.913,14.944,8.353
					c3.753,13.265,10.783,40.186,13.671,64.981c0.724,6.215-3.517,11.914-9.657,13.116c-16.203,3.172-48.028,8.42-75.081,6.945
					c-4.444-0.242-8.375-2.899-10.266-6.927c-8.323-17.728-31.853-67.321-40.65-80.299c-8.173-12.057-27.607-11.879-36.501-11.091
					c-3.376,0.298-6.696-0.805-9.213-3.074c-7.549-6.806-19.979-22.521-2.122-41.581c4.44-4.739,4.104-12.263-0.542-16.799
					c-8.325-8.129-16.395-21.921-2.828-39.089c13.735-17.38,31.907-15.655,43.766-11.813c5.247,1.7,11.251-0.06,14.284-4.667
					c1.349-2.049,3.53-3.595,7.039-3.626c6.618-0.057,11.926-5.068,11.914-11.686c-0.022-11.346,4.345-25.234,23.66-31.445
					c35.425-11.39,57.902,22.726,60.336,48.317c2.434,25.592-36.676,35.757-59.742,34.245
					C788.517,1759.12,775.949,1775.409,770.47,1784.136z"/>
				
					<linearGradient id="SVGID_00000155148887496161560510000016489558499419885700_" gradientUnits="userSpaceOnUse" x1="-987.8364" y1="-746.6729" x2="-852.6375" y2="-885.3835" gradientTransform="matrix(0.8116 -0.5843 0.5843 0.8116 1950.4146 2074.8411)">
					<stop  offset="0" style="stop-color:#FEBBBA"/>
					<stop  offset="1" style="stop-color:#FF928E"/>
				</linearGradient>
				<path style="fill:url(#SVGID_00000155148887496161560510000016489558499419885700_);" d="M764.914,1877.887
					c0,0-6.155-44.41-24.671-46.416c-18.517-2.006-36.378,13.364-17.756,38.149C745.651,1900.45,764.914,1877.887,764.914,1877.887z
					"/>
			</g>
		</g>
		<g>
			
				<linearGradient id="SVGID_00000072994663415317696410000010964795008239390369_" gradientUnits="userSpaceOnUse" x1="6756.4009" y1="2522.9175" x2="6816.3457" y2="2522.9175" gradientTransform="matrix(1 0 0 1 -4408.3003 0)">
				<stop  offset="0" style="stop-color:#FFFFFF"/>
				<stop  offset="0.9964" style="stop-color:#EBEFF2"/>
			</linearGradient>
			<path style="fill:url(#SVGID_00000072994663415317696410000010964795008239390369_);" d="M2386.374,2468.423
				c0,0,29.173,10.846,19.823,51.614s-37.402,60.965-54.606,56.85C2334.386,2572.773,2386.374,2468.423,2386.374,2468.423z"/>
			
				<linearGradient id="SVGID_00000016756452803080626790000014888910440338506928_" gradientUnits="userSpaceOnUse" x1="6131.5728" y1="2440.3196" x2="6294.6167" y2="2440.3196" gradientTransform="matrix(1 0 0 1 -4408.3003 0)">
				<stop  offset="0" style="stop-color:#FFFFFF"/>
				<stop  offset="0.9964" style="stop-color:#EBEFF2"/>
			</linearGradient>
			<path style="fill:url(#SVGID_00000016756452803080626790000014888910440338506928_);" d="M1786.08,2289.765
				c0,0-1.496,237.378-13.464,242.615c-11.969,5.236-78.543,46.378-34.409,52.362c44.134,5.984,106.22,19.449,122.677-32.165
				c16.457-51.614,25.433-175.039,25.433-175.039L1786.08,2289.765z"/>
			
				<linearGradient id="SVGID_00000119813538320783494060000003557367351132623244_" gradientUnits="userSpaceOnUse" x1="6059.9448" y1="1844.1005" x2="5970.1812" y2="2077.4856" gradientTransform="matrix(1 0 0 1 -4408.3003 0)">
				<stop  offset="0" style="stop-color:#FFFFFF"/>
				<stop  offset="0.9964" style="stop-color:#EBEFF2"/>
			</linearGradient>
			<path style="fill:url(#SVGID_00000119813538320783494060000003557367351132623244_);" d="M1527.636,2118.906
				c0,0,1.683-52.736,21.319-45.443c19.636,7.293,31.417,22.375,31.417,22.375L1527.636,2118.906z"/>
			<path style="fill:#FFFFFF;" d="M2374.78,2550.333c-12.343,65.078-56.102,75.177-56.102,75.177
				c-160.542,34.245-279.233,34.806-320.995,0.696c-2.019-1.638-3.859-3.366-5.52-5.184c-35.906-39.271,74.055-24.685,35.905-54.98
				s-10.098-121.181,16.831-155.964c-23.563,2.244-93.174,180.649-97.662,204.594c-2.132,11.378-21.887,18.693-46.856,21.701
				c0,0.022,0,0.022,0,0.022c-24.969,3.321-59.491,1.436-81.057-6.015c-41.156-14.227,14.418-50.133,30.868-109.96
				c16.471-59.85-81.422-252.841-95.627-265.565c-14.227-12.702-153.106,43.199-192.759,49.19
				c-39.653,5.991-41.309-2.064-70.483,7.675c-29.173,9.717-49.357-0.763-84.5-23.944c-35.165-23.182,37.394-84.535,37.394-84.535
				s14.971-16.449,14.971-41.875c0-25.448,288.367-160.834,381.497-207.96c93.13-47.126,92.009-14.587,106.595-12.342
				c14.587,2.244,169.429,81.909,361.299,205.334C2500.448,2269.821,2387.122,2485.254,2374.78,2550.333z"/>
			
				<linearGradient id="SVGID_00000006677237259612386590000009253515203949011643_" gradientUnits="userSpaceOnUse" x1="1411.5441" y1="9211.4375" x2="1933.8704" y2="8390.6387" gradientTransform="matrix(1 0 0 1 -4408.3003 0)">
				<stop  offset="0" style="stop-color:#09005D"/>
				<stop  offset="1" style="stop-color:#1A0F91"/>
			</linearGradient>
			<path style="fill:url(#SVGID_00000006677237259612386590000009253515203949011643_);" d="M1414.029,2252.99
				c1.427-0.494,34.222,10.379,29.173,17.953c-5.049,7.574-31.786,24.463-40.017,13.915S1399.442,2258.04,1414.029,2252.99z"/>
			
				<linearGradient id="SVGID_00000082329503125986887690000001051697369633901466_" gradientUnits="userSpaceOnUse" x1="1468.3868" y1="9247.6084" x2="1990.7131" y2="8426.8105" gradientTransform="matrix(1 0 0 1 -4408.3003 0)">
				<stop  offset="0" style="stop-color:#09005D"/>
				<stop  offset="1" style="stop-color:#1A0F91"/>
			</linearGradient>
			<path style="fill:url(#SVGID_00000082329503125986887690000001051697369633901466_);" d="M1527.262,2208.483
				c0,0,4.488-14.587,12.717-14.213c8.228,0.374,22.067,2.611,17.579,7.103C1553.069,2205.865,1525.145,2213.598,1527.262,2208.483z
				"/>
			<path style="fill:#BDD0FB;" d="M1631.425,2135.737c0,0,0.248-0.322,0.763-0.874c0.524-0.535,1.273-1.374,2.348-2.282
				c2.134-1.852,5.314-4.417,10.162-6.317c2.443-0.877,5.341-1.706,8.901-1.373c1.763,0.11,3.678,0.708,5.486,1.651
				c1.859,0.923,3.399,2.439,4.678,4.029c2.471,3.283,3.601,6.995,4.16,10.478c0.176,0.893,0.241,1.749,0.329,2.618l0.126,1.307
				l0.013,1.424c-0.003,1.546-0.006,3.097-0.01,4.648c-0.19,1.758-0.379,3.517-0.568,5.268c-0.23,1.717-0.681,3.305-1.021,4.938
				c-0.813,3.214-1.9,6.3-3.22,9.138c-0.608,1.442-1.341,2.792-2.083,4.095c-0.708,1.32-1.492,2.552-2.298,3.721
				c-0.777,1.185-1.59,2.293-2.432,3.322c-0.815,1.045-1.633,2.025-2.482,2.913c-1.637,1.816-3.286,3.335-4.799,4.602
				c-1.497,1.282-2.926,2.257-4.093,3.043c-2.355,1.56-3.861,2.175-3.861,2.175s0.871-1.366,2.248-3.719
				c0.693-1.174,1.484-2.618,2.36-4.258c0.448-0.811,0.903-1.684,1.358-2.612c0.48-0.91,0.96-1.874,1.418-2.9
				c0.493-1.002,0.988-2.046,1.431-3.159c0.482-1.09,0.986-2.202,1.4-3.391c0.448-1.171,0.957-2.34,1.324-3.594
				c0.388-1.244,0.901-2.459,1.204-3.77c0.785-2.557,1.36-5.237,1.895-7.944c0.207-1.354,0.416-2.719,0.627-4.089l0.376-3.937
				c0.036-1.536,0.072-3.072,0.11-4.603l-0.792-0.576l-0.796-0.288v-0.144v-0.036c0-0.245,0,0.293,0,0.226v-0.062l0.771-0.987
				c-0.024-0.656,0.379-1.328,0.291-1.934c-0.221-2.521-0.553-4.727-1.338-6.262c-0.809-1.485-1.681-2.437-3.41-3.054
				c-1.685-0.635-3.828-0.713-5.881-0.604c-2.079,0.118-4.058,0.477-5.847,0.843c-1.787,0.383-3.378,0.755-4.686,1.121
				C1632.961,2135.254,1631.425,2135.737,1631.425,2135.737z"/>
			
				<linearGradient id="SVGID_00000013897050891351534720000005969937777546182335_" gradientUnits="userSpaceOnUse" x1="1901.2319" y1="2519.6631" x2="2044.8986" y2="2519.6631">
				<stop  offset="0" style="stop-color:#DAE3FE"/>
				<stop  offset="1" style="stop-color:#E9EFFD"/>
			</linearGradient>
			<path style="fill:url(#SVGID_00000013897050891351534720000005969937777546182335_);" d="M2044.899,2410.077
				c-23.563,2.244-92.748,180.649-97.237,204.594c-2.132,11.378-21.88,18.693-46.43,21.701
				C1902.242,2633.296,1993.576,2355.411,2044.899,2410.077z"/>
			
				<linearGradient id="SVGID_00000166669619622795739480000013542263576484960663_" gradientUnits="userSpaceOnUse" x1="1984.8475" y1="2518.1411" x2="2066.6079" y2="2518.1411">
				<stop  offset="0" style="stop-color:#DAE3FE"/>
				<stop  offset="1" style="stop-color:#E9EFFD"/>
			</linearGradient>
			<path style="fill:url(#SVGID_00000166669619622795739480000013542263576484960663_);" d="M2033.678,2593.531
				c-22.98,0-49.348,17.167-35.995,32.674c-2.019-1.638-3.859-3.366-5.52-5.184c-35.906-39.271,74.055-24.685,35.905-54.98
				s-10.098-121.181,16.831-155.964c0,0-23.944,108.838,7.473,129.035S2056.68,2593.531,2033.678,2593.531z"/>
		</g>
	</g>
</g>
</svg>
